<svg width="28" height="28" viewBox="0 0 28 28" fill="none" xmlns="http://www.w3.org/2000/svg">
<path d="M28 14.3333C28 15.622 26.9553 16.6667 25.6667 16.6667H2.33333C1.04467 16.6667 0 15.622 0 14.3333C0 13.0447 1.04467 12 2.33333 12H25.6667C26.9553 12 28 13.0447 28 14.3333Z" fill="#11542B"/>
<path d="M28 5.33333C28 6.622 26.9553 7.66667 25.6667 7.66667H2.33333C1.04467 7.66667 0 6.622 0 5.33333C0 4.04467 1.04467 3 2.33333 3H25.6667C26.9553 3 28 4.04467 28 5.33333Z" fill="#11542B"/>
<path d="M28 23.3333C28 24.622 26.9553 25.6667 25.6667 25.6667H2.33333C1.04467 25.6667 0 24.622 0 23.3333C0 22.0447 1.04467 21 2.33333 21H25.6667C26.9553 21 28 22.0447 28 23.3333Z" fill="#11542B"/>
</svg>
